Atithi-Bold.ufo
<glyph name="exclam" format="1">
  <advance width="207"/>
  <unicode hex="0021"/>
  <note>
	exclam
  </note>
  <outline>
    <contour>
      <point x="154" y="121" type="line"/>
      <point x="160" y="309" type="line"/>
      <point x="160" y="450" type="line"/>
      <point x="48" y="450" type="line"/>
      <point x="48" y="309" type="line"/>
      <point x="54" y="121" type="line"/>
    </contour>
    <contour>
      <point x="160" y="0" type="line"/>
      <point x="160" y="88" type="line"/>
      <point x="48" y="88" type="line"/>
      <point x="48" y="0" type="line"/>
    </contour>
  </outline>
</glyph>
<glyph name="quotedbl" format="1">
  <advance width="371"/>
  <unicode hex="0022"/>
  <note>
	quotedbl
  </note>
  <outline>
    <contour>
      <point x="283" y="349" type="line"/>
      <point x="291" y="444" type="line" smooth="yes"/>
      <point x="292" y="461"/>
      <point x="291" y="478"/>
      <point x="288" y="497" type="curve"/>
      <point x="201" y="497" type="line"/>
      <point x="198" y="478"/>
      <point x="197" y="461"/>
      <point x="198" y="444" type="curve" smooth="yes"/>
      <point x="206" y="349" type="line"/>
    </contour>
    <contour>
      <point x="166" y="349" type="line"/>
      <point x="173" y="444" type="line" smooth="yes"/>
      <point x="174" y="461"/>
      <point x="174" y="478"/>
      <point x="171" y="497" type="curve"/>
      <point x="83" y="497" type="line"/>
      <point x="80" y="478"/>
      <point x="80" y="461"/>
      <point x="81" y="444" type="curve" smooth="yes"/>
      <point x="88" y="349" type="line"/>
    </contour>
  </outline>
</glyph>
<glyph name="numbersign" format="1">
  <advance width="578"/>
  <unicode hex="0023"/>
  <note>
	numbersign
  </note>
  <outline>
    <contour>
      <point x="239" y="102" type="line"/>
      <point x="295" y="102" type="line"/>
      <point x="281" y="0" type="line"/>
      <point x="386" y="-3" type="line"/>
      <point x="400" y="102" type="line"/>
      <point x="492" y="102" type="line"/>
      <point x="492" y="196" type="line"/>
      <point x="413" y="196" type="line"/>
      <point x="420" y="250" type="line"/>
      <point x="508" y="250" type="line"/>
      <point x="508" y="344" type="line"/>
      <point x="432" y="344" type="line"/>
      <point x="447" y="452" type="line"/>
      <point x="344" y="454" type="line"/>
      <point x="329" y="344" type="line"/>
      <point x="272" y="344" type="line"/>
      <point x="286" y="452" type="line"/>
      <point x="184" y="454" type="line"/>
      <point x="168" y="344" type="line"/>
      <point x="78" y="344" type="line"/>
      <point x="78" y="250" type="line"/>
      <point x="155" y="250" type="line"/>
      <point x="148" y="196" type="line"/>
      <point x="60" y="196" type="line"/>
      <point x="60" y="102" type="line"/>
      <point x="135" y="102" type="line"/>
      <point x="121" y="0" type="line"/>
      <point x="226" y="-3" type="line"/>
    </contour>
    <contour>
      <point x="260" y="250" type="line"/>
      <point x="315" y="250" type="line"/>
      <point x="308" y="196" type="line"/>
      <point x="252" y="196" type="line"/>
    </contour>
  </outline>
</glyph>
<glyph name="parenleft" format="1">
  <advance width="256"/>
  <unicode hex="0028"/>
  <note>
	parenleft
  </note>
  <outline>
    <contour>
      <point x="166" y="-72"/>
      <point x="196" y="-66"/>
      <point x="211" y="-59" type="curve"/>
      <point x="211" y="22" type="line"/>
      <point x="154" y="22" type="line"/>
      <point x="154" y="424" type="line"/>
      <point x="211" y="424" type="line"/>
      <point x="211" y="505" type="line"/>
      <point x="196" y="513"/>
      <point x="166" y="518"/>
      <point x="134" y="517" type="curve"/>
      <point x="95" y="507"/>
      <point x="55" y="482"/>
      <point x="47" y="450" type="curve"/>
      <point x="47" y="-3" type="line"/>
      <point x="55" y="-36"/>
      <point x="95" y="-60"/>
      <point x="134" y="-70" type="curve"/>
    </contour>
  </outline>
</glyph>
<glyph name="parenright" format="1">
  <advance width="256"/>
  <unicode hex="0029"/>
  <note>
	parenright
  </note>
  <outline>
    <contour>
      <point x="161" y="-60"/>
      <point x="201" y="-36"/>
      <point x="209" y="-3" type="curve"/>
      <point x="209" y="450" type="line"/>
      <point x="201" y="482"/>
      <point x="161" y="507"/>
      <point x="122" y="517" type="curve"/>
      <point x="90" y="518"/>
      <point x="59" y="513"/>
      <point x="45" y="505" type="curve"/>
      <point x="45" y="424" type="line"/>
      <point x="102" y="424" type="line"/>
      <point x="102" y="22" type="line"/>
      <point x="45" y="22" type="line"/>
      <point x="45" y="-59" type="line"/>
      <point x="59" y="-66"/>
      <point x="90" y="-72"/>
      <point x="122" y="-70" type="curve"/>
    </contour>
  </outline>
</glyph>
<glyph name="asterisk" format="1">
  <advance width="332"/>
  <unicode hex="002A"/>
  <note>
	asterisk
  </note>
  <outline>
    <contour>
      <point x="165" y="287" type="line"/>
      <point x="167" y="287" type="line"/>
      <point x="211" y="215" type="line"/>
      <point x="275" y="261" type="line"/>
      <point x="219" y="325" type="line"/>
      <point x="220" y="328" type="line"/>
      <point x="296" y="344" type="line"/>
      <point x="270" y="420" type="line"/>
      <point x="200" y="390" type="line"/>
      <point x="198" y="392" type="line"/>
      <point x="207" y="471" type="line"/>
      <point x="125" y="471" type="line"/>
      <point x="134" y="392" type="line"/>
      <point x="131" y="390" type="line"/>
      <point x="62" y="420" type="line"/>
      <point x="36" y="344" type="line"/>
      <point x="112" y="328" type="line"/>
      <point x="113" y="325" type="line"/>
      <point x="57" y="261" type="line"/>
      <point x="121" y="215" type="line"/>
    </contour>
  </outline>
</glyph>
<glyph name="colon" format="1">
  <advance width="206"/>
  <unicode hex="003A"/>
  <note>
	colon
  </note>
  <outline>
    <contour>
      <point x="159" y="216" type="line"/>
      <point x="159" y="318" type="line"/>
      <point x="47" y="318" type="line"/>
      <point x="47" y="216" type="line"/>
    </contour>
    <contour>
      <point x="159" y="0" type="line"/>
      <point x="159" y="102" type="line"/>
      <point x="47" y="102" type="line"/>
      <point x="47" y="0" type="line"/>
    </contour>
  </outline>
</glyph>
<glyph name="bracketleft" format="1">
  <advance width="246"/>
  <unicode hex="005B"/>
  <note>
	bracketleft
  </note>
  <outline>
    <contour>
      <point x="201" y="-62" type="line"/>
      <point x="201" y="40" type="line"/>
      <point x="154" y="40" type="line"/>
      <point x="154" y="411" type="line"/>
      <point x="201" y="411" type="line"/>
      <point x="201" y="513" type="line"/>
      <point x="47" y="513" type="line"/>
      <point x="47" y="-62" type="line"/>
    </contour>
  </outline>
</glyph>
<glyph name="bracketright" format="1">
  <advance width="246"/>
  <unicode hex="005D"/>
  <note>
	bracketright
  </note>
  <outline>
    <contour>
      <point x="199" y="-62" type="line"/>
      <point x="199" y="513" type="line"/>
      <point x="45" y="513" type="line"/>
      <point x="45" y="411" type="line"/>
      <point x="91" y="411" type="line"/>
      <point x="91" y="40" type="line"/>
      <point x="45" y="40" type="line"/>
      <point x="45" y="-62" type="line"/>
    </contour>
  </outline>
</glyph>
<glyph name="braceleft" format="1">
  <advance width="334"/>
  <unicode hex="007B"/>
  <note>
	braceleft
  </note>
  <outline>
    <contour>
      <point x="305" y="8" type="line"/>
      <point x="273" y="8"/>
      <point x="242" y="10"/>
      <point x="223" y="16" type="curve"/>
      <point x="220" y="34"/>
      <point x="221" y="38"/>
      <point x="223" y="64" type="curve" smooth="yes"/>
      <point x="225" y="132" type="line" smooth="yes"/>
      <point x="228" y="187"/>
      <point x="207" y="213"/>
      <point x="160" y="228" type="curve"/>
      <point x="160" y="231" type="line"/>
      <point x="207" y="245"/>
      <point x="228" y="271"/>
      <point x="225" y="326" type="curve" smooth="yes"/>
      <point x="223" y="387" type="line" smooth="yes"/>
      <point x="221" y="413"/>
      <point x="220" y="417"/>
      <point x="223" y="435" type="curve"/>
      <point x="242" y="441"/>
      <point x="273" y="443"/>
      <point x="305" y="443" type="curve"/>
      <point x="305" y="539" type="line"/>
      <point x="187" y="539"/>
      <point x="113" y="500"/>
      <point x="119" y="389" type="curve" smooth="yes"/>
      <point x="122" y="336" type="line" smooth="yes"/>
      <point x="124" y="292"/>
      <point x="110" y="270"/>
      <point x="36" y="270" type="curve"/>
      <point x="36" y="189" type="line"/>
      <point x="110" y="189"/>
      <point x="124" y="166"/>
      <point x="122" y="123" type="curve" smooth="yes"/>
      <point x="119" y="62" type="line" smooth="yes"/>
      <point x="113" y="-49"/>
      <point x="187" y="-88"/>
      <point x="305" y="-88" type="curve"/>
    </contour>
  </outline>
</glyph>
<glyph name="exclamdown" format="1">
  <advance width="207"/>
  <unicode hex="00A1"/>
  <note>
	exclamdown
  </note>
  <outline>
    <contour>
      <point x="160" y="-3" type="line"/>
      <point x="160" y="138" type="line"/>
      <point x="154" y="326" type="line"/>
      <point x="54" y="326" type="line"/>
      <point x="48" y="138" type="line"/>
      <point x="48" y="-3" type="line"/>
    </contour>
    <contour>
      <point x="160" y="359" type="line"/>
      <point x="160" y="447" type="line"/>
      <point x="48" y="447" type="line"/>
      <point x="48" y="359" type="line"/>
    </contour>
  </outline>
</glyph>
<glyph name="softhyphen" format="1">
  <advance width="260"/>
  <unicode hex="00AD"/>
  <note>
	softhyphen
  </note>
  <outline>
    <contour>
      <point x="231" y="118" type="line"/>
      <point x="231" y="218" type="line"/>
      <point x="29" y="218" type="line"/>
      <point x="29" y="118" type="line"/>
    </contour>
  </outline>
</glyph>
<glyph name="questiondown" format="1">
  <advance width="476"/>
  <unicode hex="00BF"/>
  <note>
	questiondown
  </note>
  <outline>
    <contour>
      <point x="307" y="-80"/>
      <point x="365" y="-60"/>
      <point x="406" y="-38" type="curve"/>
      <point x="406" y="-23" type="line" smooth="yes"/>
      <point x="406" y="5"/>
      <point x="402" y="40"/>
      <point x="396" y="65" type="curve"/>
      <point x="304" y="65" type="line"/>
      <point x="304" y="30" type="line"/>
      <point x="282" y="24"/>
      <point x="267" y="22"/>
      <point x="238" y="22" type="curve" smooth="yes"/>
      <point x="199" y="22"/>
      <point x="178" y="25"/>
      <point x="178" y="54" type="curve" smooth="yes"/>
      <point x="178" y="73" type="line"/>
      <point x="288" y="149" type="line" smooth="yes"/>
      <point x="306" y="162"/>
      <point x="312" y="173"/>
      <point x="312" y="194" type="curve" smooth="yes"/>
      <point x="312" y="261" type="line"/>
      <point x="204" y="261" type="line"/>
      <point x="204" y="221" type="line" smooth="yes"/>
      <point x="204" y="206"/>
      <point x="203" y="198"/>
      <point x="193" y="191" type="curve" smooth="yes"/>
      <point x="120" y="144" type="line"/>
      <point x="81" y="115"/>
      <point x="70" y="87"/>
      <point x="70" y="42" type="curve" smooth="yes"/>
      <point x="70" y="-36"/>
      <point x="128" y="-80"/>
      <point x="237" y="-80" type="curve" smooth="yes"/>
    </contour>
    <contour>
      <point x="312" y="290" type="line"/>
      <point x="312" y="378" type="line"/>
      <point x="201" y="378" type="line"/>
      <point x="201" y="290" type="line"/>
    </contour>
  </outline>
</glyph>
<glyph name="grBindi" format="1">
  <advance width="0"/>
  <unicode hex="0A02"/>
  <outline>
    <contour>
      <point x="-65" y="489"/>
      <point x="-40" y="515"/>
      <point x="-40" y="545" type="curve" smooth="yes"/>
      <point x="-40" y="575"/>
      <point x="-65" y="600"/>
      <point x="-95" y="600" type="curve" smooth="yes"/>
      <point x="-123" y="600"/>
      <point x="-151" y="575"/>
      <point x="-151" y="545" type="curve" smooth="yes"/>
      <point x="-151" y="515"/>
      <point x="-125" y="489"/>
      <point x="-95" y="489" type="curve" smooth="yes"/>
    </contour>
    <contour>
      <point x="-95" y="447" type="move" name="_top"/>
    </contour>
  </outline>
</glyph>
<glyph name="grOO" format="1">
  <advance width="498"/>
  <unicode hex="0A13"/>
  <outline>
    <contour>
      <point x="388" y="-4"/>
      <point x="438" y="54"/>
      <point x="438" y="119" type="curve" smooth="yes"/>
      <point x="438" y="179"/>
      <point x="398" y="231"/>
      <point x="348" y="257" type="curve"/>
      <point x="300" y="214" type="line"/>
      <point x="317" y="195"/>
      <point x="326" y="170"/>
      <point x="326" y="147" type="curve" smooth="yes"/>
      <point x="326" y="109"/>
      <point x="306" y="80"/>
      <point x="196" y="80" type="curve"/>
      <point x="165" y="140"/>
      <point x="145" y="215"/>
      <point x="145" y="309" type="curve" smooth="yes"/>
      <point x="145" y="467"/>
      <point x="186" y="547"/>
      <point x="298" y="547" type="curve" smooth="yes"/>
      <point x="344" y="547"/>
      <point x="386" y="536"/>
      <point x="448" y="511" type="curve"/>
      <point x="484" y="573" type="line"/>
      <point x="415" y="606"/>
      <point x="360" y="623"/>
      <point x="289" y="623" type="curve" smooth="yes"/>
      <point x="125" y="623"/>
      <point x="32" y="508"/>
      <point x="32" y="315" type="curve" smooth="yes"/>
      <point x="32" y="161"/>
      <point x="115" y="-4"/>
      <point x="289" y="-4" type="curve" smooth="yes"/>
    </contour>
    <contour>
      <point x="263" y="194" type="line" smooth="yes"/>
      <point x="406" y="195"/>
      <point x="471" y="281"/>
      <point x="471" y="376" type="curve"/>
      <point x="363" y="376" type="line"/>
      <point x="363" y="327"/>
      <point x="346" y="277"/>
      <point x="263" y="277" type="curve" smooth="yes"/>
      <point x="112" y="277" type="line"/>
      <point x="112" y="194" type="line"/>
    </contour>
    <contour>
      <point x="527" y="363" type="line"/>
      <point x="527" y="447" type="line"/>
      <point x="-29" y="447" type="line"/>
      <point x="-29" y="363" type="line"/>
    </contour>
  </outline>
</glyph>
<glyph name="grKA" format="1">
  <advance width="471"/>
  <unicode hex="0A15"/>
  <outline>
    <contour>
      <point x="447" y="12" type="line"/>
      <point x="398" y="220"/>
      <point x="305" y="305"/>
      <point x="175" y="305" type="curve" smooth="yes"/>
      <point x="81" y="305"/>
      <point x="22" y="250"/>
      <point x="22" y="172" type="curve" smooth="yes"/>
      <point x="22" y="87"/>
      <point x="99" y="33"/>
      <point x="191" y="33" type="curve" smooth="yes"/>
      <point x="330" y="33"/>
      <point x="397" y="128"/>
      <point x="397" y="271" type="curve" smooth="yes"/>
      <point x="397" y="307"/>
      <point x="393" y="342"/>
      <point x="386" y="384" type="curve"/>
      <point x="275" y="384" type="line"/>
      <point x="282" y="341"/>
      <point x="286" y="300"/>
      <point x="286" y="263" type="curve" smooth="yes"/>
      <point x="286" y="171"/>
      <point x="257" y="106"/>
      <point x="169" y="106" type="curve" smooth="yes"/>
      <point x="156" y="106"/>
      <point x="140" y="108"/>
      <point x="131" y="111" type="curve"/>
      <point x="128" y="117"/>
      <point x="127" y="128"/>
      <point x="127" y="141" type="curve" smooth="yes"/>
      <point x="127" y="195"/>
      <point x="155" y="221"/>
      <point x="202" y="221" type="curve" smooth="yes"/>
      <point x="231" y="221"/>
      <point x="256" y="210"/>
      <point x="282" y="189" type="curve"/>
      <point x="391" y="-7" type="line"/>
    </contour>
    <contour>
      <point x="500" y="363" type="line"/>
      <point x="500" y="447" type="line"/>
      <point x="-29" y="447" type="line"/>
      <point x="-29" y="363" type="line"/>
    </contour>
    <contour>
      <point x="331" y="447" type="move" name="top"/>
    </contour>
    <contour>
      <point x="232" y="0" type="move" name="bottom"/>
    </contour>
  </outline>
</glyph>
<glyph name="grCHA" format="1">
  <advance width="467"/>
  <unicode hex="0A1B"/>
  <outline>
    <contour>
      <point x="383" y="-4"/>
      <point x="448" y="38"/>
      <point x="448" y="104" type="curve" smooth="yes"/>
      <point x="448" y="170"/>
      <point x="390" y="202"/>
      <point x="297" y="202" type="curve" smooth="yes"/>
      <point x="186" y="202" type="line"/>
      <point x="183" y="208"/>
      <point x="181" y="215"/>
      <point x="181" y="222" type="curve" smooth="yes"/>
      <point x="181" y="234"/>
      <point x="189" y="246"/>
      <point x="210" y="246" type="curve" smooth="yes"/>
      <point x="404" y="246" type="line"/>
      <point x="404" y="396" type="line"/>
      <point x="295" y="396" type="line"/>
      <point x="295" y="318" type="line"/>
      <point x="174" y="318" type="line" smooth="yes"/>
      <point x="103" y="318"/>
      <point x="64" y="278"/>
      <point x="64" y="230" type="curve" smooth="yes"/>
      <point x="64" y="176"/>
      <point x="110" y="130"/>
      <point x="181" y="130" type="curve" smooth="yes"/>
      <point x="294" y="130" type="line" smooth="yes"/>
      <point x="311" y="130"/>
      <point x="326" y="128"/>
      <point x="336" y="126" type="curve"/>
      <point x="338" y="120"/>
      <point x="339" y="114"/>
      <point x="339" y="107" type="curve" smooth="yes"/>
      <point x="339" y="82"/>
      <point x="320" y="68"/>
      <point x="241" y="68" type="curve" smooth="yes"/>
      <point x="191" y="68"/>
      <point x="155" y="72"/>
      <point x="133" y="77" type="curve"/>
      <point x="131" y="84"/>
      <point x="129" y="92"/>
      <point x="129" y="102" type="curve" smooth="yes"/>
      <point x="129" y="116"/>
      <point x="133" y="128"/>
      <point x="141" y="141" type="curve"/>
      <point x="93" y="178" type="line"/>
      <point x="51" y="165"/>
      <point x="22" y="138"/>
      <point x="22" y="96" type="curve" smooth="yes"/>
      <point x="22" y="19"/>
      <point x="123" y="-4"/>
      <point x="241" y="-4" type="curve" smooth="yes"/>
    </contour>
    <contour>
      <point x="282" y="41" type="line"/>
      <point x="282" y="159" type="line"/>
      <point x="198" y="159" type="line"/>
      <point x="198" y="41" type="line"/>
    </contour>
    <contour>
      <point x="496" y="363" type="line"/>
      <point x="496" y="447" type="line"/>
      <point x="-29" y="447" type="line"/>
      <point x="-29" y="363" type="line"/>
    </contour>
    <contour>
      <point x="349" y="447" type="move" name="top"/>
    </contour>
    <contour>
      <point x="239" y="0" type="move" name="bottom"/>
    </contour>
  </outline>
</glyph>
<glyph name="grJA" format="1">
  <advance width="422"/>
  <unicode hex="0A1C"/>
  <outline>
    <contour>
      <point x="178" y="0" type="line"/>
      <point x="178" y="189" type="line"/>
      <point x="270" y="189" type="line"/>
      <point x="270" y="0" type="line"/>
      <point x="378" y="0" type="line"/>
      <point x="378" y="363" type="line"/>
      <point x="451" y="363" type="line"/>
      <point x="451" y="447" type="line"/>
      <point x="-29" y="447" type="line"/>
      <point x="-29" y="363" type="line"/>
      <point x="270" y="363" type="line"/>
      <point x="270" y="272" type="line"/>
      <point x="154" y="272" type="line"/>
      <point x="80" y="319" type="line"/>
      <point x="49" y="319"/>
      <point x="23" y="295"/>
      <point x="12" y="259" type="curve"/>
      <point x="20" y="223"/>
      <point x="43" y="198"/>
      <point x="69" y="183" type="curve"/>
      <point x="69" y="0" type="line"/>
    </contour>
  </outline>
</glyph>
<glyph name="grJHA" format="1">
  <advance width="418"/>
  <unicode hex="0A1D"/>
  <outline>
    <contour>
      <point x="309" y="52"/>
      <point x="394" y="90"/>
      <point x="394" y="167" type="curve" smooth="yes"/>
      <point x="394" y="218"/>
      <point x="357" y="263"/>
      <point x="283" y="286" type="curve"/>
      <point x="199" y="247" type="line"/>
      <point x="149" y="290" type="line"/>
      <point x="107" y="285"/>
      <point x="70" y="274"/>
      <point x="27" y="252" type="curve"/>
      <point x="53" y="189" type="line"/>
      <point x="91" y="202"/>
      <point x="141" y="209"/>
      <point x="188" y="209" type="curve" smooth="yes"/>
      <point x="225" y="209"/>
      <point x="261" y="204"/>
      <point x="286" y="192" type="curve"/>
      <point x="287" y="183"/>
      <point x="288" y="176"/>
      <point x="287" y="169" type="curve" smooth="yes"/>
      <point x="284" y="136"/>
      <point x="260" y="117"/>
      <point x="186" y="112" type="curve"/>
      <point x="131" y="159" type="line"/>
      <point x="86" y="162"/>
      <point x="51" y="143"/>
      <point x="51" y="109" type="curve" smooth="yes"/>
      <point x="51" y="94"/>
      <point x="57" y="75"/>
      <point x="75" y="66" type="curve"/>
      <point x="117" y="57"/>
      <point x="167" y="52"/>
      <point x="204" y="52" type="curve" smooth="yes"/>
    </contour>
    <contour>
      <point x="265" y="-5"/>
      <point x="283" y="7"/>
      <point x="291" y="23" type="curve"/>
      <point x="218" y="80" type="line"/>
      <point x="119" y="70" type="line"/>
      <point x="239" y="-7" type="line"/>
    </contour>
    <contour>
      <point x="320" y="224"/>
      <point x="406" y="299"/>
      <point x="418" y="431" type="curve"/>
      <point x="305" y="431" type="line"/>
      <point x="306" y="344"/>
      <point x="232" y="281"/>
      <point x="195" y="272" type="curve"/>
      <point x="160" y="294"/>
      <point x="111" y="344"/>
      <point x="109" y="431" type="curve"/>
      <point x="11" y="431" type="line"/>
      <point x="25" y="312"/>
      <point x="114" y="224"/>
      <point x="214" y="224" type="curve" smooth="yes"/>
    </contour>
    <contour>
      <point x="447" y="363" type="line"/>
      <point x="447" y="447" type="line"/>
      <point x="-29" y="447" type="line"/>
      <point x="-29" y="363" type="line"/>
    </contour>
    <contour>
      <point x="362" y="447" type="move" name="top"/>
    </contour>
    <contour>
      <point x="236" y="0" type="move" name="bottom"/>
    </contour>
  </outline>
</glyph>
<glyph name="grNYA" format="1">
  <advance width="418"/>
  <unicode hex="0A1E"/>
  <outline>
    <contour>
      <point x="336" y="-4"/>
      <point x="372" y="6"/>
      <point x="400" y="18" type="curve"/>
      <point x="377" y="88" type="line"/>
      <point x="347" y="80"/>
      <point x="324" y="78"/>
      <point x="305" y="78" type="curve" smooth="yes"/>
      <point x="265" y="78"/>
      <point x="231" y="88"/>
      <point x="231" y="115" type="curve" smooth="yes"/>
      <point x="231" y="117"/>
      <point x="231" y="120"/>
      <point x="231" y="122" type="curve"/>
      <point x="283" y="123"/>
      <point x="331" y="133"/>
      <point x="367" y="145" type="curve"/>
      <point x="382" y="178"/>
      <point x="365" y="222"/>
      <point x="328" y="229" type="curve"/>
      <point x="193" y="183" type="line"/>
      <point x="153" y="181"/>
      <point x="141" y="203"/>
      <point x="141" y="221" type="curve" smooth="yes"/>
      <point x="141" y="240"/>
      <point x="153" y="257"/>
      <point x="180" y="257" type="curve" smooth="yes"/>
      <point x="371" y="257" type="line"/>
      <point x="371" y="363" type="line"/>
      <point x="447" y="363" type="line"/>
      <point x="447" y="447" type="line"/>
      <point x="-29" y="447" type="line"/>
      <point x="-29" y="363" type="line"/>
      <point x="29" y="363" type="line"/>
      <point x="35" y="327"/>
      <point x="58" y="306"/>
      <point x="88" y="294" type="curve"/>
      <point x="88" y="289" type="line"/>
      <point x="51" y="273"/>
      <point x="32" y="247"/>
      <point x="32" y="210" type="curve" smooth="yes"/>
      <point x="32" y="156"/>
      <point x="76" y="131"/>
      <point x="160" y="124" type="curve"/>
      <point x="158" y="116"/>
      <point x="157" y="102"/>
      <point x="157" y="94" type="curve" smooth="yes"/>
      <point x="157" y="47"/>
      <point x="186" y="-4"/>
      <point x="293" y="-4" type="curve" smooth="yes"/>
    </contour>
    <contour>
      <point x="148" y="323"/>
      <point x="138" y="338"/>
      <point x="138" y="363" type="curve"/>
      <point x="262" y="363" type="line"/>
      <point x="262" y="313" type="line"/>
      <point x="162" y="313" type="line"/>
    </contour>
    <contour>
      <point x="317" y="447" type="move" name="top"/>
    </contour>
    <contour>
      <point x="232" y="0" type="move" name="bottom"/>
    </contour>
  </outline>
</glyph>
<glyph name="grTTA" format="1">
  <advance width="400"/>
  <unicode hex="0A1F"/>
  <outline>
    <contour>
      <point x="285" y="-4"/>
      <point x="340" y="21"/>
      <point x="378" y="77" type="curve"/>
      <point x="291" y="127" type="line"/>
      <point x="267" y="106"/>
      <point x="239" y="86"/>
      <point x="212" y="76" type="curve"/>
      <point x="165" y="89"/>
      <point x="130" y="123"/>
      <point x="130" y="165" type="curve" smooth="yes"/>
      <point x="130" y="198"/>
      <point x="154" y="212"/>
      <point x="187" y="212" type="curve" smooth="yes"/>
      <point x="357" y="212" type="line"/>
      <point x="357" y="363" type="line"/>
      <point x="429" y="363" type="line"/>
      <point x="429" y="447" type="line"/>
      <point x="-29" y="447" type="line"/>
      <point x="-29" y="363" type="line"/>
      <point x="248" y="363" type="line"/>
      <point x="248" y="296" type="line"/>
      <point x="146" y="296" type="line" smooth="yes"/>
      <point x="73" y="296"/>
      <point x="21" y="254"/>
      <point x="21" y="189" type="curve" smooth="yes"/>
      <point x="21" y="83"/>
      <point x="144" y="-4"/>
      <point x="236" y="-4" type="curve" smooth="yes"/>
    </contour>
    <contour>
      <point x="302" y="447" type="move" name="top"/>
    </contour>
    <contour>
      <point x="225" y="0" type="move" name="bottom"/>
    </contour>
  </outline>
</glyph>
<glyph name="grTTHA" format="1">
  <advance width="478"/>
  <unicode hex="0A20"/>
  <outline>
    <contour>
      <point x="365" y="-4"/>
      <point x="449" y="57"/>
      <point x="449" y="150" type="curve" smooth="yes"/>
      <point x="449" y="242"/>
      <point x="365" y="304"/>
      <point x="239" y="304" type="curve" smooth="yes"/>
      <point x="113" y="304"/>
      <point x="29" y="242"/>
      <point x="29" y="150" type="curve" smooth="yes"/>
      <point x="29" y="57"/>
      <point x="113" y="-4"/>
      <point x="239" y="-4" type="curve" smooth="yes"/>
    </contour>
    <contour>
      <point x="204" y="80"/>
      <point x="180" y="84"/>
      <point x="152" y="92" type="curve"/>
      <point x="145" y="108"/>
      <point x="140" y="126"/>
      <point x="140" y="150" type="curve" smooth="yes"/>
      <point x="140" y="204"/>
      <point x="168" y="226"/>
      <point x="239" y="226" type="curve" smooth="yes"/>
      <point x="274" y="226"/>
      <point x="298" y="223"/>
      <point x="326" y="215" type="curve"/>
      <point x="333" y="199"/>
      <point x="338" y="177"/>
      <point x="338" y="150" type="curve" smooth="yes"/>
      <point x="338" y="101"/>
      <point x="310" y="80"/>
      <point x="239" y="80" type="curve" smooth="yes"/>
    </contour>
    <contour>
      <point x="507" y="363" type="line"/>
      <point x="507" y="447" type="line"/>
      <point x="-29" y="447" type="line"/>
      <point x="-29" y="363" type="line"/>
    </contour>
    <contour>
      <point x="183" y="375" type="line"/>
      <point x="183" y="278" type="line"/>
      <point x="296" y="278" type="line"/>
      <point x="296" y="375" type="line"/>
    </contour>
    <contour>
      <point x="338" y="447" type="move" name="top"/>
    </contour>
    <contour>
      <point x="239" y="0" type="move" name="bottom"/>
    </contour>
  </outline>
</glyph>
<glyph name="grNNA" format="1">
  <advance width="451"/>
  <unicode hex="0A23"/>
  <outline>
    <contour>
      <point x="321" y="-4"/>
      <point x="390" y="34"/>
      <point x="429" y="91" type="curve"/>
      <point x="339" y="144" type="line"/>
      <point x="311" y="114"/>
      <point x="270" y="87"/>
      <point x="234" y="76" type="curve"/>
      <point x="189" y="82"/>
      <point x="130" y="120"/>
      <point x="130" y="165" type="curve" smooth="yes"/>
      <point x="130" y="198"/>
      <point x="154" y="212"/>
      <point x="187" y="212" type="curve" smooth="yes"/>
      <point x="272" y="212" type="line"/>
      <point x="272" y="299" type="line"/>
      <point x="275" y="301" type="line"/>
      <point x="357" y="239" type="line"/>
      <point x="390" y="240"/>
      <point x="426" y="263"/>
      <point x="439" y="294" type="curve"/>
      <point x="335" y="361" type="line"/>
      <point x="336" y="363" type="line"/>
      <point x="480" y="363" type="line"/>
      <point x="480" y="447" type="line"/>
      <point x="-29" y="447" type="line"/>
      <point x="-29" y="363" type="line"/>
      <point x="173" y="363" type="line"/>
      <point x="173" y="296" type="line"/>
      <point x="146" y="296" type="line" smooth="yes"/>
      <point x="73" y="296"/>
      <point x="21" y="254"/>
      <point x="21" y="189" type="curve" smooth="yes"/>
      <point x="21" y="76"/>
      <point x="165" y="-4"/>
      <point x="257" y="-4" type="curve" smooth="yes"/>
    </contour>
    <contour>
      <point x="303" y="447" type="move" name="top"/>
    </contour>
    <contour>
      <point x="238" y="0" type="move" name="bottom"/>
    </contour>
  </outline>
</glyph>
<glyph name="grTHA" format="1">
  <advance width="461"/>
  <unicode hex="0A25"/>
  <outline>
    <contour>
      <point x="324" y="221" type="line"/>
      <point x="324" y="305" type="line"/>
      <point x="149" y="305" type="line"/>
      <point x="149" y="221" type="line"/>
    </contour>
    <component base="grDHA"/>
  </outline>
</glyph>
<glyph name="grDA" format="1">
  <advance width="413"/>
  <unicode hex="0A26"/>
  <outline>
    <contour>
      <point x="317" y="-4"/>
      <point x="358" y="21"/>
      <point x="396" y="77" type="curve"/>
      <point x="346" y="118" type="line"/>
      <point x="299" y="93"/>
      <point x="271" y="80"/>
      <point x="252" y="76" type="curve"/>
      <point x="211" y="82"/>
      <point x="187" y="103"/>
      <point x="181" y="146" type="curve" smooth="yes"/>
      <point x="174" y="189" type="line"/>
      <point x="364" y="189" type="line"/>
      <point x="364" y="375" type="line"/>
      <point x="255" y="375" type="line"/>
      <point x="255" y="272" type="line"/>
      <point x="151" y="272" type="line"/>
      <point x="77" y="319" type="line"/>
      <point x="46" y="319"/>
      <point x="20" y="295"/>
      <point x="9" y="259" type="curve"/>
      <point x="16" y="223"/>
      <point x="39" y="194"/>
      <point x="76" y="183" type="curve"/>
      <point x="84" y="65"/>
      <point x="159" y="-4"/>
      <point x="260" y="-4" type="curve" smooth="yes"/>
    </contour>
    <contour>
      <point x="442" y="363" type="line"/>
      <point x="442" y="447" type="line"/>
      <point x="-29" y="447" type="line"/>
      <point x="-29" y="363" type="line"/>
    </contour>
    <contour>
      <point x="310" y="447" type="move" name="top"/>
    </contour>
    <contour>
      <point x="232" y="0" type="move" name="bottom"/>
    </contour>
  </outline>
</glyph>
<glyph name="grBA" format="1">
  <advance width="455"/>
  <unicode hex="0A2C"/>
  <outline>
    <contour>
      <point x="411" y="0" type="line"/>
      <point x="411" y="363" type="line"/>
      <point x="484" y="363" type="line"/>
      <point x="484" y="447" type="line"/>
      <point x="-29" y="447" type="line"/>
      <point x="-29" y="363" type="line"/>
      <point x="33" y="363" type="line"/>
      <point x="38" y="327"/>
      <point x="59" y="291"/>
      <point x="91" y="274" type="curve"/>
      <point x="91" y="270" type="line"/>
      <point x="54" y="254"/>
      <point x="36" y="220"/>
      <point x="36" y="183" type="curve" smooth="yes"/>
      <point x="36" y="122"/>
      <point x="87" y="62"/>
      <point x="200" y="62" type="curve" smooth="yes"/>
      <point x="252" y="62"/>
      <point x="295" y="70"/>
      <point x="332" y="83" type="curve"/>
      <point x="332" y="177" type="line"/>
      <point x="294" y="156"/>
      <point x="238" y="142"/>
      <point x="194" y="142" type="curve" smooth="yes"/>
      <point x="178" y="142"/>
      <point x="165" y="144"/>
      <point x="154" y="146" type="curve"/>
      <point x="148" y="154"/>
      <point x="144" y="163"/>
      <point x="144" y="173" type="curve" smooth="yes"/>
      <point x="144" y="196"/>
      <point x="159" y="217"/>
      <point x="196" y="217" type="curve" smooth="yes"/>
      <point x="352" y="217" type="line"/>
      <point x="352" y="297" type="line"/>
      <point x="202" y="297" type="line"/>
      <point x="167" y="302"/>
      <point x="145" y="320"/>
      <point x="141" y="363" type="curve"/>
      <point x="302" y="363" type="line"/>
      <point x="302" y="0" type="line"/>
    </contour>
  </outline>
</glyph>
<glyph name="grMA" format="1">
  <advance width="439"/>
  <unicode hex="0A2E"/>
  <outline>
    <contour>
      <point x="161" y="97"/>
      <point x="183" y="165"/>
      <point x="183" y="246" type="curve" smooth="yes"/>
      <point x="183" y="355"/>
      <point x="136" y="447"/>
      <point x="30" y="447" type="curve" smooth="yes"/>
      <point x="-15" y="447" type="line"/>
      <point x="-15" y="363" type="line"/>
      <point x="64" y="363" type="line"/>
      <point x="79" y="322"/>
      <point x="82" y="273"/>
      <point x="85" y="222" type="curve"/>
      <point x="41" y="170"/>
      <point x="27" y="133"/>
      <point x="26" y="114" type="curve" smooth="yes"/>
      <point x="25" y="86"/>
      <point x="74" y="53"/>
      <point x="118" y="48" type="curve"/>
    </contour>
    <contour>
      <point x="214" y="202"/>
      <point x="271" y="185"/>
      <point x="297" y="154" type="curve"/>
      <point x="322" y="262" type="line"/>
      <point x="268" y="277"/>
      <point x="213" y="284"/>
      <point x="159" y="241" type="curve"/>
      <point x="170" y="176" type="line"/>
    </contour>
    <contour>
      <point x="398" y="0" type="line"/>
      <point x="398" y="363" type="line"/>
      <point x="453" y="363" type="line"/>
      <point x="453" y="447" type="line"/>
      <point x="289" y="447" type="line"/>
      <point x="289" y="0" type="line"/>
    </contour>
  </outline>
</glyph>
<glyph name="grSA" format="1">
  <advance width="444"/>
  <unicode hex="0A38"/>
  <outline>
    <contour>
      <point x="164" y="97"/>
      <point x="186" y="165"/>
      <point x="186" y="246" type="curve" smooth="yes"/>
      <point x="186" y="297"/>
      <point x="176" y="344"/>
      <point x="154" y="379" type="curve"/>
      <point x="67" y="364" type="line"/>
      <point x="82" y="322"/>
      <point x="85" y="273"/>
      <point x="88" y="222" type="curve"/>
      <point x="44" y="170"/>
      <point x="30" y="133"/>
      <point x="29" y="114" type="curve" smooth="yes"/>
      <point x="28" y="86"/>
      <point x="77" y="53"/>
      <point x="121" y="48" type="curve"/>
    </contour>
    <contour>
      <point x="188" y="185"/>
      <point x="204" y="189"/>
      <point x="220" y="189" type="curve" smooth="yes"/>
      <point x="252" y="189"/>
      <point x="283" y="174"/>
      <point x="300" y="154" type="curve"/>
      <point x="325" y="262" type="line"/>
      <point x="301" y="269"/>
      <point x="278" y="273"/>
      <point x="254" y="273" type="curve" smooth="yes"/>
      <point x="223" y="273"/>
      <point x="192" y="265"/>
      <point x="162" y="241" type="curve"/>
      <point x="173" y="176" type="line"/>
    </contour>
    <contour>
      <point x="401" y="0" type="line"/>
      <point x="401" y="382" type="line"/>
      <point x="292" y="382" type="line"/>
      <point x="292" y="0" type="line"/>
    </contour>
    <contour>
      <point x="473" y="363" type="line"/>
      <point x="473" y="447" type="line"/>
      <point x="-29" y="447" type="line"/>
      <point x="-29" y="363" type="line"/>
    </contour>
  </outline>
</glyph>
<glyph name="grmII" format="1">
  <advance width="196"/>
  <unicode hex="0A40"/>
  <outline>
    <contour>
      <point x="152" y="0" type="line"/>
      <point x="152" y="363" type="line"/>
      <point x="225" y="363" type="line"/>
      <point x="225" y="447" type="line"/>
      <point x="-29" y="447" type="line"/>
      <point x="-29" y="363" type="line"/>
      <point x="44" y="363" type="line"/>
      <point x="44" y="0" type="line"/>
    </contour>
    <contour>
      <point x="152" y="435" type="line"/>
      <point x="152" y="457" type="line" smooth="yes"/>
      <point x="152" y="577"/>
      <point x="59" y="657"/>
      <point x="-44" y="657" type="curve" smooth="yes"/>
      <point x="-134" y="657"/>
      <point x="-183" y="606"/>
      <point x="-183" y="543" type="curve" smooth="yes"/>
      <point x="-183" y="503"/>
      <point x="-164" y="459"/>
      <point x="-123" y="419" type="curve"/>
      <point x="-52" y="439" type="line"/>
      <point x="-66" y="458"/>
      <point x="-73" y="483"/>
      <point x="-73" y="506" type="curve" smooth="yes"/>
      <point x="-73" y="550"/>
      <point x="-44" y="570"/>
      <point x="-10" y="570" type="curve" smooth="yes"/>
      <point x="8" y="570"/>
      <point x="28" y="564"/>
      <point x="44" y="553" type="curve"/>
      <point x="44" y="435" type="line"/>
    </contour>
  </outline>
</glyph>
<glyph name="grmUU" format="1">
  <advance width="0"/>
  <unicode hex="0A42"/>
  <outline>
    <contour>
      <point x="-113" y="-162"/>
      <point x="-63" y="-153"/>
      <point x="-21" y="-131" type="curve"/>
      <point x="-51" y="-56" type="line"/>
      <point x="-98" y="-72"/>
      <point x="-133" y="-80"/>
      <point x="-175" y="-80" type="curve" smooth="yes"/>
      <point x="-215" y="-80"/>
      <point x="-262" y="-75"/>
      <point x="-344" y="-46" type="curve"/>
      <point x="-358" y="-107" type="line"/>
      <point x="-274" y="-154"/>
      <point x="-199" y="-162"/>
      <point x="-162" y="-162" type="curve" smooth="yes"/>
    </contour>
    <contour>
      <point x="-105" y="-286"/>
      <point x="-53" y="-277"/>
      <point x="-9" y="-255" type="curve"/>
      <point x="-40" y="-180" type="line"/>
      <point x="-89" y="-196"/>
      <point x="-125" y="-204"/>
      <point x="-170" y="-204" type="curve" smooth="yes"/>
      <point x="-212" y="-204"/>
      <point x="-261" y="-199"/>
      <point x="-347" y="-170" type="curve"/>
      <point x="-362" y="-231" type="line"/>
      <point x="-274" y="-278"/>
      <point x="-195" y="-286"/>
      <point x="-157" y="-286" type="curve" smooth="yes"/>
    </contour>
    <contour>
      <point x="-182" y="0" type="move" name="_bottom"/>
    </contour>
  </outline>
</glyph>
<glyph name="grmEE" format="1">
  <advance width="0"/>
  <unicode hex="0A47"/>
  <outline>
    <contour>
      <point x="-99" y="552" type="line" smooth="yes"/>
      <point x="-133" y="628"/>
      <point x="-162" y="655"/>
      <point x="-211" y="655" type="curve" smooth="yes"/>
      <point x="-243" y="655"/>
      <point x="-286" y="642"/>
      <point x="-339" y="619" type="curve"/>
      <point x="-323" y="537" type="line"/>
      <point x="-163" y="550" type="line"/>
      <point x="-93" y="437" type="line"/>
      <point x="-49" y="437" type="line"/>
    </contour>
    <contour>
      <point x="-71" y="447" type="move" name="_top"/>
    </contour>
  </outline>
</glyph>
<glyph name="grmOO" format="1">
  <advance width="0"/>
  <unicode hex="0A4B"/>
  <outline>
    <contour>
      <point x="-51" y="437" type="line"/>
      <point x="-59" y="465" type="line" smooth="yes"/>
      <point x="-94" y="573"/>
      <point x="-117" y="614"/>
      <point x="-192" y="614" type="curve" smooth="yes"/>
      <point x="-234" y="614" type="line" smooth="yes"/>
      <point x="-270" y="614"/>
      <point x="-276" y="621"/>
      <point x="-287" y="655" type="curve"/>
      <point x="-315" y="655" type="line"/>
      <point x="-326" y="631"/>
      <point x="-331" y="609"/>
      <point x="-331" y="589" type="curve" smooth="yes"/>
      <point x="-331" y="540"/>
      <point x="-298" y="505"/>
      <point x="-215" y="505" type="curve" smooth="yes"/>
      <point x="-134" y="505" type="line"/>
      <point x="-94" y="437" type="line"/>
    </contour>
    <contour>
      <point x="-73" y="447" type="move" name="_top"/>
    </contour>
  </outline>
</glyph>
<glyph name="grVirama" format="1">
  <advance width="0"/>
  <unicode hex="0A4D"/>
  <outline>
    <contour>
      <point x="71" y="-265" type="line"/>
      <point x="-4" y="-146" type="line" smooth="yes"/>
      <point x="-45" y="-80"/>
      <point x="-80" y="-52"/>
      <point x="-125" y="-52" type="curve" smooth="yes"/>
      <point x="-164" y="-52"/>
      <point x="-197" y="-73"/>
      <point x="-233" y="-104" type="curve"/>
      <point x="-191" y="-184" type="line"/>
      <point x="-84" y="-156" type="line"/>
      <point x="39" y="-289" type="line"/>
    </contour>
    <contour>
      <point x="-94" y="0" type="move" name="_bottom"/>
    </contour>
  </outline>
</glyph>
<glyph name="grGxA" format="1">
  <advance width="658"/>
  <unicode hex="0A5A"/>
  <outline>
    <contour>
      <point x="370" y="-4"/>
      <point x="419" y="38"/>
      <point x="419" y="146" type="curve" smooth="yes"/>
      <point x="419" y="363" type="line"/>
      <point x="506" y="363" type="line"/>
      <point x="506" y="0" type="line"/>
      <point x="615" y="0" type="line"/>
      <point x="615" y="363" type="line"/>
      <point x="687" y="363" type="line"/>
      <point x="687" y="447" type="line"/>
      <point x="-29" y="447" type="line"/>
      <point x="-29" y="363" type="line"/>
      <point x="310" y="363" type="line"/>
      <point x="310" y="291" type="line"/>
      <point x="223" y="291" type="line" smooth="yes"/>
      <point x="150" y="291"/>
      <point x="98" y="250"/>
      <point x="98" y="178" type="curve" smooth="yes"/>
      <point x="98" y="80"/>
      <point x="215" y="-4"/>
      <point x="302" y="-4" type="curve" smooth="yes"/>
    </contour>
    <contour>
      <point x="79" y="-7"/>
      <point x="102" y="16"/>
      <point x="102" y="49" type="curve" smooth="yes"/>
      <point x="102" y="81"/>
      <point x="79" y="104"/>
      <point x="46" y="104" type="curve" smooth="yes"/>
      <point x="14" y="104"/>
      <point x="-9" y="81"/>
      <point x="-9" y="49" type="curve" smooth="yes"/>
      <point x="-9" y="16"/>
      <point x="14" y="-7"/>
      <point x="46" y="-7" type="curve" smooth="yes"/>
    </contour>
    <contour>
      <point x="245" y="76"/>
      <point x="224" y="81"/>
      <point x="210" y="91" type="curve"/>
      <point x="208" y="113"/>
      <point x="207" y="129"/>
      <point x="207" y="150" type="curve" smooth="yes"/>
      <point x="207" y="185"/>
      <point x="221" y="208"/>
      <point x="264" y="208" type="curve" smooth="yes"/>
      <point x="310" y="208" type="line"/>
      <point x="310" y="146" type="line" smooth="yes"/>
      <point x="310" y="101"/>
      <point x="301" y="76"/>
      <point x="265" y="76" type="curve"/>
    </contour>
  </outline>
</glyph>
<glyph name="grZero" format="1">
  <advance width="431"/>
  <unicode hex="0A66"/>
  <outline>
    <contour>
      <point x="355" y="49"/>
      <point x="402" y="112"/>
      <point x="402" y="227" type="curve" smooth="yes"/>
      <point x="402" y="347"/>
      <point x="329" y="421"/>
      <point x="203" y="421" type="curve" smooth="yes"/>
      <point x="77" y="421"/>
      <point x="29" y="356"/>
      <point x="29" y="240" type="curve" smooth="yes"/>
      <point x="29" y="123"/>
      <point x="88" y="49"/>
      <point x="228" y="49" type="curve" smooth="yes"/>
    </contour>
    <contour>
      <point x="196" y="133"/>
      <point x="177" y="134"/>
      <point x="159" y="138" type="curve"/>
      <point x="152" y="165"/>
      <point x="146" y="204"/>
      <point x="146" y="235" type="curve" smooth="yes"/>
      <point x="146" y="315"/>
      <point x="162" y="335"/>
      <point x="217" y="335" type="curve" smooth="yes"/>
      <point x="236" y="335"/>
      <point x="252" y="333"/>
      <point x="270" y="329" type="curve"/>
      <point x="279" y="307"/>
      <point x="286" y="272"/>
      <point x="286" y="232" type="curve" smooth="yes"/>
      <point x="286" y="151"/>
      <point x="267" y="133"/>
      <point x="215" y="133" type="curve" smooth="yes"/>
    </contour>
  </outline>
</glyph>
<glyph name="grAddak" format="1">
  <advance width="0"/>
  <unicode hex="0A71"/>
  <outline>
    <contour>
      <point x="-25" y="481"/>
      <point x="21" y="532"/>
      <point x="30" y="596" type="curve"/>
      <point x="-14" y="619" type="line"/>
      <point x="-52" y="573"/>
      <point x="-77" y="564"/>
      <point x="-125" y="564" type="curve"/>
      <point x="-144" y="580"/>
      <point x="-162" y="599"/>
      <point x="-176" y="619" type="curve"/>
      <point x="-220" y="596" type="line"/>
      <point x="-211" y="532"/>
      <point x="-165" y="481"/>
      <point x="-95" y="481" type="curve"/>
    </contour>
    <contour>
      <point x="-95" y="447" type="move" name="_top"/>
    </contour>
  </outline>
</glyph>
<glyph name="grIri" format="1">
  <advance width="422"/>
  <unicode hex="0A72"/>
  <outline>
    <contour>
      <point x="307" y="0"/>
      <point x="362" y="22"/>
      <point x="400" y="81" type="curve"/>
      <point x="342" y="131" type="line"/>
      <point x="271" y="96"/>
      <point x="231" y="80"/>
      <point x="154" y="80" type="curve"/>
      <point x="150" y="99"/>
      <point x="148" y="112"/>
      <point x="148" y="130" type="curve" smooth="yes"/>
      <point x="148" y="170"/>
      <point x="172" y="184"/>
      <point x="205" y="184" type="curve" smooth="yes"/>
      <point x="378" y="184" type="line"/>
      <point x="378" y="363" type="line"/>
      <point x="451" y="363" type="line"/>
      <point x="451" y="447" type="line"/>
      <point x="-29" y="447" type="line"/>
      <point x="-29" y="363" type="line"/>
      <point x="36" y="363" type="line"/>
      <point x="38" y="309"/>
      <point x="62" y="274"/>
      <point x="96" y="253" type="curve"/>
      <point x="96" y="249" type="line"/>
      <point x="53" y="231"/>
      <point x="39" y="196"/>
      <point x="39" y="161" type="curve" smooth="yes"/>
      <point x="39" y="62"/>
      <point x="151" y="0"/>
      <point x="243" y="0" type="curve" smooth="yes"/>
    </contour>
    <contour>
      <point x="156" y="295"/>
      <point x="148" y="323"/>
      <point x="148" y="363" type="curve"/>
      <point x="270" y="363" type="line"/>
      <point x="270" y="268" type="line"/>
      <point x="170" y="268" type="line"/>
    </contour>
    <contour>
      <point x="324" y="447" type="move" name="top"/>
    </contour>
  </outline>
</glyph>
<glyph name="grEkonkar" format="1">
  <advance width="948"/>
  <unicode hex="0A74"/>
  <outline>
    <contour>
      <point x="827" y="-4"/>
      <point x="877" y="54"/>
      <point x="877" y="119" type="curve" smooth="yes"/>
      <point x="877" y="179"/>
      <point x="837" y="231"/>
      <point x="787" y="257" type="curve"/>
      <point x="740" y="214" type="line"/>
      <point x="756" y="195"/>
      <point x="765" y="170"/>
      <point x="765" y="147" type="curve" smooth="yes"/>
      <point x="765" y="109"/>
      <point x="745" y="80"/>
      <point x="635" y="80" type="curve"/>
      <point x="604" y="140"/>
      <point x="584" y="215"/>
      <point x="584" y="309" type="curve" smooth="yes"/>
      <point x="584" y="467"/>
      <point x="645" y="544"/>
      <point x="732" y="544" type="curve" smooth="yes"/>
      <point x="779" y="544"/>
      <point x="813" y="524"/>
      <point x="857" y="493" type="curve"/>
      <point x="898" y="511" type="line"/>
      <point x="893" y="525"/>
      <point x="891" y="537"/>
      <point x="891" y="548" type="curve" smooth="yes"/>
      <point x="891" y="585"/>
      <point x="913" y="609"/>
      <point x="948" y="609" type="curve" smooth="yes"/>
      <point x="958" y="609"/>
      <point x="968" y="608"/>
      <point x="982" y="603" type="curve"/>
      <point x="1040" y="553" type="line"/>
      <point x="1085" y="587" type="line"/>
      <point x="1039" y="674"/>
      <point x="989" y="713"/>
      <point x="924" y="713" type="curve" smooth="yes"/>
      <point x="863" y="713"/>
      <point x="832" y="678"/>
      <point x="832" y="623" type="curve" smooth="yes"/>
      <point x="832" y="613"/>
      <point x="834" y="602"/>
      <point x="836" y="591" type="curve"/>
      <point x="834" y="589" type="line"/>
      <point x="799" y="608"/>
      <point x="763" y="623"/>
      <point x="712" y="623" type="curve" smooth="yes"/>
      <point x="591" y="623"/>
      <point x="471" y="518"/>
      <point x="471" y="315" type="curve" smooth="yes"/>
      <point x="471" y="161"/>
      <point x="555" y="-4"/>
      <point x="728" y="-4" type="curve" smooth="yes"/>
    </contour>
    <contour>
      <point x="703" y="194" type="line" smooth="yes"/>
      <point x="845" y="195"/>
      <point x="911" y="281"/>
      <point x="911" y="376" type="curve"/>
      <point x="802" y="376" type="line"/>
      <point x="802" y="327"/>
      <point x="785" y="277"/>
      <point x="703" y="277" type="curve" smooth="yes"/>
      <point x="552" y="277" type="line"/>
      <point x="552" y="194" type="line"/>
    </contour>
    <contour>
      <point x="948" y="363" type="line"/>
      <point x="948" y="447" type="line"/>
      <point x="428" y="447" type="line"/>
      <point x="428" y="363" type="line"/>
    </contour>
    <component base="grOne" xOffset="15"/>
  </outline>
</glyph>
<glyph name="grYakash" format="1">
  <advance width="0"/>
  <unicode hex="0A75"/>
  <outline>
    <contour>
      <point x="37" y="-249"/>
      <point x="69" y="-241"/>
      <point x="102" y="-226" type="curve"/>
      <point x="76" y="-159" type="line"/>
      <point x="38" y="-176"/>
      <point x="8" y="-186"/>
      <point x="-24" y="-189" type="curve"/>
      <point x="-36" y="-171"/>
      <point x="-41" y="-144"/>
      <point x="-41" y="-101" type="curve" smooth="yes"/>
      <point x="-41" y="-49" type="line"/>
      <point x="-149" y="-49" type="line"/>
      <point x="-149" y="-109" type="line" smooth="yes"/>
      <point x="-149" y="-202"/>
      <point x="-75" y="-249"/>
      <point x="-2" y="-249" type="curve" smooth="yes"/>
    </contour>
    <contour>
      <point x="-95" y="0" type="move" name="_bottom"/>
    </contour>
  </outline>
</glyph>
<glyph name="grNukta" format="1">
  <advance width="0"/>
  <unicode hex="0AC3"/>
  <outline>
    <contour>
      <point x="-210" y="-136"/>
      <point x="-184" y="-110"/>
      <point x="-184" y="-80" type="curve" smooth="yes"/>
      <point x="-184" y="-50"/>
      <point x="-210" y="-25"/>
      <point x="-239" y="-25" type="curve" smooth="yes"/>
      <point x="-268" y="-25"/>
      <point x="-295" y="-50"/>
      <point x="-295" y="-80" type="curve" smooth="yes"/>
      <point x="-295" y="-110"/>
      <point x="-270" y="-136"/>
      <point x="-239" y="-136" type="curve" smooth="yes"/>
    </contour>
    <contour>
      <point x="-240" y="0" type="move" name="_bottom"/>
    </contour>
  </outline>
</glyph>
<glyph name="uni2010" format="1">
  <advance width="376"/>
  <unicode hex="2010"/>
  <note>
	uni2010
  </note>
  <outline>
    <contour>
      <point x="347" y="123" type="line"/>
      <point x="347" y="223" type="line"/>
      <point x="29" y="223" type="line"/>
      <point x="29" y="123" type="line"/>
    </contour>
  </outline>
</glyph>
<glyph name="figuredash" format="1">
  <advance width="424"/>
  <unicode hex="2012"/>
  <note>
	figuredash
  </note>
  <outline>
    <contour>
      <point x="395" y="123" type="line"/>
      <point x="395" y="223" type="line"/>
      <point x="29" y="223" type="line"/>
      <point x="29" y="123" type="line"/>
    </contour>
  </outline>
</glyph>
<glyph name="emdash" format="1">
  <advance width="511"/>
  <unicode hex="2014"/>
  <note>
	emdash
  </note>
  <outline>
    <contour>
      <point x="482" y="123" type="line"/>
      <point x="482" y="223" type="line"/>
      <point x="29" y="223" type="line"/>
      <point x="29" y="123" type="line"/>
    </contour>
  </outline>
</glyph>
<glyph name="uni2015" format="1">
  <advance width="653"/>
  <unicode hex="2015"/>
  <note>
	uni2015
  </note>
  <outline>
    <contour>
      <point x="624" y="123" type="line"/>
      <point x="624" y="223" type="line"/>
      <point x="29" y="223" type="line"/>
      <point x="29" y="123" type="line"/>
    </contour>
  </outline>
</glyph>
<glyph name="quoteleft" format="1">
  <advance width="223"/>
  <unicode hex="2018"/>
  <note>
	quoteleft
  </note>
  <outline>
    <contour>
      <point x="136" y="299"/>
      <point x="160" y="304"/>
      <point x="176" y="310" type="curve"/>
      <point x="176" y="383" type="line"/>
      <point x="138" y="383" type="line"/>
      <point x="140" y="402"/>
      <point x="146" y="418"/>
      <point x="160" y="439" type="curve"/>
      <point x="90" y="455" type="line"/>
      <point x="65" y="430"/>
      <point x="47" y="395"/>
      <point x="47" y="362" type="curve" smooth="yes"/>
      <point x="47" y="320"/>
      <point x="69" y="299"/>
      <point x="115" y="299" type="curve" smooth="yes"/>
    </contour>
  </outline>
</glyph>
<glyph name="quoteright" format="1">
  <advance width="223"/>
  <unicode hex="2019"/>
  <note>
	quoteright
  </note>
  <outline>
    <contour>
      <point x="158" y="320"/>
      <point x="176" y="355"/>
      <point x="176" y="389" type="curve" smooth="yes"/>
      <point x="176" y="431"/>
      <point x="154" y="451"/>
      <point x="109" y="451" type="curve" smooth="yes"/>
      <point x="87" y="451"/>
      <point x="63" y="447"/>
      <point x="47" y="441" type="curve"/>
      <point x="47" y="368" type="line"/>
      <point x="86" y="368" type="line"/>
      <point x="83" y="348"/>
      <point x="78" y="333"/>
      <point x="64" y="311" type="curve"/>
      <point x="133" y="296" type="line"/>
    </contour>
  </outline>
</glyph>
<glyph name="quotedblright" format="1">
  <advance width="372"/>
  <unicode hex="201D"/>
  <note>
	quotedblright
  </note>
  <outline>
    <contour>
      <point x="307" y="323"/>
      <point x="325" y="358"/>
      <point x="325" y="392" type="curve" smooth="yes"/>
      <point x="325" y="434"/>
      <point x="303" y="454"/>
      <point x="257" y="454" type="curve" smooth="yes"/>
      <point x="236" y="454"/>
      <point x="212" y="450"/>
      <point x="196" y="444" type="curve"/>
      <point x="196" y="370" type="line"/>
      <point x="234" y="370" type="line"/>
      <point x="232" y="351"/>
      <point x="226" y="336"/>
      <point x="212" y="314" type="curve"/>
      <point x="282" y="299" type="line"/>
    </contour>
    <contour>
      <point x="158" y="323"/>
      <point x="176" y="358"/>
      <point x="176" y="392" type="curve" smooth="yes"/>
      <point x="176" y="434"/>
      <point x="154" y="454"/>
      <point x="109" y="454" type="curve" smooth="yes"/>
      <point x="87" y="454"/>
      <point x="63" y="450"/>
      <point x="47" y="444" type="curve"/>
      <point x="47" y="370" type="line"/>
      <point x="86" y="370" type="line"/>
      <point x="83" y="351"/>
      <point x="78" y="336"/>
      <point x="64" y="314" type="curve"/>
      <point x="133" y="299" type="line"/>
    </contour>
  </outline>
</glyph>
<glyph name="ellipsis" format="1">
  <advance width="504"/>
  <unicode hex="2026"/>
  <note>
	ellipsis
  </note>
  <outline>
    <contour>
      <point x="448" y="0" type="line"/>
      <point x="448" y="102" type="line"/>
      <point x="336" y="102" type="line"/>
      <point x="336" y="0" type="line"/>
    </contour>
    <contour>
      <point x="178" y="0" type="line"/>
      <point x="178" y="102" type="line"/>
      <point x="66" y="102" type="line"/>
      <point x="66" y="0" type="line"/>
    </contour>
    <contour>
      <point x="313" y="0" type="line"/>
      <point x="313" y="102" type="line"/>
      <point x="201" y="102" type="line"/>
      <point x="201" y="0" type="line"/>
    </contour>
  </outline>
</glyph>
<glyph name="uni208D" format="1">
  <advance width="192"/>
  <unicode hex="208D"/>
  <note>
	uni208D
  </note>
  <outline>
    <contour>
      <point x="125" y="-144"/>
      <point x="144" y="-141"/>
      <point x="156" y="-139" type="curve"/>
      <point x="156" y="-71" type="line"/>
      <point x="124" y="-71" type="line"/>
      <point x="124" y="109" type="line"/>
      <point x="156" y="109" type="line"/>
      <point x="156" y="177" type="line"/>
      <point x="144" y="179"/>
      <point x="125" y="181"/>
      <point x="108" y="181" type="curve"/>
      <point x="90" y="176"/>
      <point x="41" y="156"/>
      <point x="40" y="141" type="curve"/>
      <point x="40" y="-104" type="line"/>
      <point x="41" y="-118"/>
      <point x="90" y="-138"/>
      <point x="108" y="-144" type="curve"/>
    </contour>
  </outline>
</glyph>
<glyph name="uni208E" format="1">
  <advance width="194"/>
  <unicode hex="208E"/>
  <note>
	uni208E
  </note>
  <outline>
    <contour>
      <point x="106" y="-139"/>
      <point x="154" y="-119"/>
      <point x="156" y="-104" type="curve"/>
      <point x="156" y="141" type="line"/>
      <point x="154" y="155"/>
      <point x="106" y="175"/>
      <point x="88" y="181" type="curve"/>
      <point x="71" y="181"/>
      <point x="52" y="178"/>
      <point x="40" y="176" type="curve"/>
      <point x="40" y="108" type="line"/>
      <point x="72" y="108" type="line"/>
      <point x="72" y="-72" type="line"/>
      <point x="40" y="-72" type="line"/>
      <point x="40" y="-140" type="line"/>
      <point x="52" y="-142"/>
      <point x="71" y="-144"/>
      <point x="88" y="-144" type="curve"/>
    </contour>
  </outline>
</glyph>
<glyph name=".notdef" format="1">
  <advance width="467"/>
  <note>
	.notdef
  </note>
  <outline>
    <contour>
      <point x="405" y="0" type="line"/>
      <point x="405" y="521" type="line"/>
      <point x="61" y="521" type="line"/>
      <point x="61" y="0" type="line"/>
    </contour>
    <contour>
      <point x="152" y="447" type="line"/>
      <point x="315" y="447" type="line"/>
      <point x="315" y="73" type="line"/>
      <point x="152" y="73" type="line"/>
    </contour>
  </outline>
</glyph>
<glyph name="grHeadline_Visarga" format="1">
  <advance width="204"/>
  <outline>
    <contour>
      <point x="163" y="187"/>
      <point x="184" y="212"/>
      <point x="184" y="260" type="curve" smooth="yes"/>
      <point x="184" y="309"/>
      <point x="152" y="339"/>
      <point x="96" y="339" type="curve" smooth="yes"/>
      <point x="41" y="339"/>
      <point x="20" y="312"/>
      <point x="20" y="266" type="curve" smooth="yes"/>
      <point x="20" y="218"/>
      <point x="45" y="187"/>
      <point x="108" y="187" type="curve" smooth="yes"/>
    </contour>
    <contour>
      <point x="163" y="7"/>
      <point x="184" y="32"/>
      <point x="184" y="80" type="curve" smooth="yes"/>
      <point x="184" y="128"/>
      <point x="152" y="159"/>
      <point x="96" y="159" type="curve" smooth="yes"/>
      <point x="41" y="159"/>
      <point x="20" y="132"/>
      <point x="20" y="85" type="curve" smooth="yes"/>
      <point x="20" y="37"/>
      <point x="45" y="7"/>
      <point x="108" y="7" type="curve" smooth="yes"/>
    </contour>
    <contour>
      <point x="98" y="52"/>
      <point x="94" y="53"/>
      <point x="90" y="54" type="curve"/>
      <point x="88" y="62"/>
      <point x="88" y="73"/>
      <point x="88" y="83" type="curve" smooth="yes"/>
      <point x="88" y="106"/>
      <point x="91" y="113"/>
      <point x="102" y="113" type="curve" smooth="yes"/>
      <point x="106" y="113"/>
      <point x="110" y="112"/>
      <point x="114" y="112" type="curve"/>
      <point x="115" y="105"/>
      <point x="117" y="94"/>
      <point x="117" y="82" type="curve" smooth="yes"/>
      <point x="117" y="57"/>
      <point x="112" y="52"/>
      <point x="102" y="52" type="curve" smooth="yes"/>
    </contour>
    <contour>
      <point x="98" y="233"/>
      <point x="94" y="233"/>
      <point x="90" y="234" type="curve"/>
      <point x="88" y="242"/>
      <point x="88" y="254"/>
      <point x="88" y="263" type="curve" smooth="yes"/>
      <point x="88" y="286"/>
      <point x="91" y="294"/>
      <point x="102" y="294" type="curve" smooth="yes"/>
      <point x="106" y="294"/>
      <point x="110" y="293"/>
      <point x="114" y="292" type="curve"/>
      <point x="115" y="286"/>
      <point x="117" y="274"/>
      <point x="117" y="262" type="curve" smooth="yes"/>
      <point x="117" y="238"/>
      <point x="112" y="233"/>
      <point x="102" y="233" type="curve" smooth="yes"/>
    </contour>
    <contour>
      <point x="233" y="363" type="line"/>
      <point x="233" y="447" type="line"/>
      <point x="-29" y="447" type="line"/>
      <point x="-29" y="363" type="line"/>
    </contour>
  </outline>
</glyph>
<glyph name="grRAc2" format="1">
  <advance width="0"/>
  <outline>
    <contour>
      <point x="96" y="-258" type="line"/>
      <point x="51" y="-185"/>
      <point x="8" y="-138"/>
      <point x="-52" y="-110" type="curve"/>
      <point x="-95" y="-182" type="line"/>
      <point x="64" y="-286" type="line"/>
    </contour>
    <contour>
      <point x="-83" y="-192"/>
      <point x="-40" y="-139"/>
      <point x="-40" y="-74" type="curve" smooth="yes"/>
      <point x="-40" y="-66"/>
      <point x="-41" y="-58"/>
      <point x="-42" y="-49" type="curve"/>
      <point x="-149" y="-49" type="line"/>
      <point x="-152" y="-98" type="line"/>
      <point x="-175" y="-112"/>
      <point x="-194" y="-134"/>
      <point x="-204" y="-158" type="curve"/>
      <point x="-194" y="-182"/>
      <point x="-175" y="-200"/>
      <point x="-153" y="-215" type="curve"/>
    </contour>
  </outline>
</glyph>
<glyph name="grmAU_Bindi" format="1">
  <advance width="0"/>
  <outline>
    <component base="grmAU" xOffset="-65"/>
    <component base="grBindi" xOffset="123"/>
    <contour>
      <point x="-95" y="447" type="move" name="_top"/>
    </contour>
  </outline>
</glyph>
<glyph name="grmUU.alt" format="1">
  <advance width="0"/>
  <outline>
    <contour>
      <point x="-113" y="-365"/>
      <point x="-63" y="-356"/>
      <point x="-21" y="-334" type="curve"/>
      <point x="-51" y="-259" type="line"/>
      <point x="-98" y="-275"/>
      <point x="-133" y="-283"/>
      <point x="-175" y="-283" type="curve" smooth="yes"/>
      <point x="-215" y="-283"/>
      <point x="-262" y="-278"/>
      <point x="-344" y="-249" type="curve"/>
      <point x="-358" y="-310" type="line"/>
      <point x="-274" y="-357"/>
      <point x="-199" y="-365"/>
      <point x="-162" y="-365" type="curve" smooth="yes"/>
    </contour>
    <contour>
      <point x="-105" y="-489"/>
      <point x="-53" y="-480"/>
      <point x="-9" y="-458" type="curve"/>
      <point x="-40" y="-383" type="line"/>
      <point x="-89" y="-399"/>
      <point x="-125" y="-407"/>
      <point x="-170" y="-407" type="curve" smooth="yes"/>
      <point x="-212" y="-407"/>
      <point x="-261" y="-402"/>
      <point x="-347" y="-373" type="curve"/>
      <point x="-362" y="-434" type="line"/>
      <point x="-274" y="-481"/>
      <point x="-195" y="-489"/>
      <point x="-157" y="-489" type="curve" smooth="yes"/>
    </contour>
    <contour>
      <point x="-186" y="0" type="move" name="_bottom"/>
    </contour>
  </outline>
</glyph>
